<?xml version="1.0"?>
<svg xmlns="http://www.w3.org/2000/svg" id="Layer_1" data-name="Layer 1" viewBox="0 0 512 512" width="512" height="512"><title>Entertainment</title><path d="M416.59,58.29V453.71a31.458,31.458,0,0,1-31.45,31.46H126.86a31.458,31.458,0,0,1-31.45-31.46V58.29a31.458,31.458,0,0,1,31.45-31.46H385.14A31.458,31.458,0,0,1,416.59,58.29Z" style="fill:#00acea"/><rect x="138.78" y="71.96" width="234.44" height="184.04" style="fill:#00efd1"/><path d="M213,356H178V320a8,8,0,0,0-16,0v36H127a8,8,0,0,0,0,16h35v34a8,8,0,0,0,16,0V372h35a8,8,0,0,0,0-16Z" style="fill:#fedb41"/><circle cx="369.69" cy="369.16" r="14.72" style="fill:#f4b844"/><circle cx="330.39" cy="329.86" r="14.72" style="fill:#f4b844"/><circle cx="330.39" cy="408.46" r="14.72" style="fill:#f4b844"/><circle cx="291.09" cy="369.16" r="14.72" style="fill:#f4b844"/></svg>
